PathFileType	4	(X/Y/Z)	c:/Users/goper/Files/vsCode/490R/osim_files/C06/C06_Static_02.trc
DataRate	CameraRate	NumFrames	NumMarkers	Units                	OrigDataRate	OrigDataStartFrame	OrigNumFrames
250.00	250.00	4	36	mm	250.0	172	1368
                Frame#	Time	LPSIS			LASIS			LTH1			LTH2			LTH3			LTH4			LLFE			LMFE			LSH1			LSH2			LSH3			LSH4			LLMAL			LMMAL			LCAL			LMTP5			LTOE			LMTP1			RPSIS			RASIS			RTH1			RTH2			RTH3			RTH4			RLFE			RMFE			RSH1			RSH2			RSH3			RSH4			RLMAL			RMMAL			RCAL			RMTP1			RTOE			RMTP5		
		X1	Y1	Z1	X2	Y2	Z2	X3	Y3	Z3	X4	Y4	Z4	X5	Y5	Z5	X6	Y6	Z6	X7	Y7	Z7	X8	Y8	Z8	X9	Y9	Z9	X10	Y10	Z10	X11	Y11	Z11	X12	Y12	Z12	X13	Y13	Z13	X14	Y14	Z14	X15	Y15	Z15	X16	Y16	Z16	X17	Y17	Z17	X18	Y18	Z18	X19	Y19	Z19	X20	Y20	Z20	X21	Y21	Z21	X22	Y22	Z22	X23	Y23	Z23	X24	Y24	Z24	X25	Y25	Z25	X26	Y26	Z26	X27	Y27	Z27	X28	Y28	Z28	X29	Y29	Z29	X30	Y30	Z30	X31	Y31	Z31	X32	Y32	Z32	X33	Y33	Z33	X34	Y34	Z34	X35	Y35	Z35	X36	Y36	Z36

172	0.68400	-370.24969	1013.95612	461.70096	-200.48984	977.64990	351.02658	-295.92502	793.77771	267.32617	-290.95224	731.52893	258.46225	-221.86487	790.78064	280.45624	-226.08981	730.36554	270.24280	-300.13797	480.70752	267.99307	-307.85547	445.04636	378.39038	-372.57800	376.31827	234.70848	-365.32126	333.16803	230.20712	-308.05612	382.13513	232.77226	-311.16248	338.13928	227.77580	-330.57690	92.18774	237.55405	-322.15616	103.52834	315.09024	-392.35617	65.72665	282.51416	-219.85042	31.94299	202.39435	-165.92349	56.62733	268.78732	-192.13286	37.87988	314.81384	-367.27115	1011.73773	533.31219	-180.64558	972.14777	590.71362	-274.63803	789.50476	688.80542	-267.29800	726.80048	691.03943	-202.22745	790.25104	668.69672	-205.31308	727.59454	674.92993	-288.53650	463.17163	677.97620	-284.37830	460.31525	567.62427	-346.91837	393.23035	708.85815	-344.96143	345.35593	715.72186	-286.80463	385.62436	699.33807	-293.46768	340.01068	706.45911	-323.40912	90.67784	696.01154	-315.46198	105.91016	618.08002	-388.13696	62.50043	655.98279	-184.43109	35.94726	610.44141	-163.65475	53.91491	655.85052	-205.58311	28.13439	723.98444
173	0.68800	-370.28613	1013.97485	461.67456	-200.50688	977.65955	351.02081	-295.91049	793.76843	267.30463	-290.96729	731.54169	258.43387	-221.83614	790.80701	280.45023	-226.06697	730.39679	270.21472	-300.11929	480.72345	267.98502	-307.85715	445.03690	378.38489	-372.55551	376.33383	234.70763	-365.36737	333.23813	230.26903	-308.04605	382.15848	232.77255	-311.20758	338.08591	227.78351	-330.55743	92.20745	237.54643	-322.14508	103.54037	315.07767	-392.35211	65.74333	282.49088	-219.84341	31.94149	202.42403	-165.97466	56.92458	268.77094	-192.13377	37.89672	314.81488	-367.30292	1011.76111	533.30658	-180.65701	972.17102	590.69977	-274.63971	789.52063	688.79761	-267.35822	726.81409	691.03290	-202.22238	790.26794	668.70142	-205.32095	727.62207	674.93805	-288.51465	463.19147	677.97015	-284.37021	460.32025	567.63708	-346.90619	393.26141	708.85468	-344.97867	345.37708	715.69147	-286.78564	385.65332	699.32672	-293.44772	340.03033	706.46332	-323.37546	90.69040	696.00372	-315.44452	105.92434	618.07520	-388.16043	62.51601	655.98425	-184.62582	35.85588	610.60620	-163.66168	53.92076	655.83081	-205.59447	28.13270	723.95966
174	0.69200	-370.28336	1013.97925	461.65375	-200.52441	977.67126	351.01981	-295.90027	793.79822	267.29626	-290.96527	731.56049	258.43399	-221.83911	790.80957	280.45508	-226.09595	730.37836	270.23230	-300.12198	480.72968	267.98557	-307.86160	445.02884	378.37192	-372.57220	376.34106	234.69611	-365.34848	333.19882	230.24200	-308.03644	382.15381	232.77682	-311.16580	338.09503	227.81197	-330.57715	92.20526	237.54471	-322.11530	103.54171	315.06546	-392.34656	65.73661	282.50726	-219.83667	31.95060	202.40520	-166.28778	56.45454	269.06329	-192.13448	37.90131	314.80652	-367.33359	1011.77240	533.28040	-180.66658	972.16943	590.70172	-274.66006	789.51862	688.77985	-267.32269	726.84271	691.03198	-202.22189	790.26300	668.68762	-205.32726	727.62030	674.91931	-288.51471	463.18835	677.95532	-284.37726	460.32635	567.63562	-346.89569	393.26697	708.83612	-344.93530	345.38574	715.65021	-286.77710	385.65961	699.32574	-293.45422	340.02594	706.43756	-323.35471	90.69509	696.00848	-315.44467	105.94680	618.06726	-388.17487	62.53578	655.99182	-184.42752	35.95197	610.44000	-163.65628	53.91957	655.84631	-205.58830	28.14062	723.95685
175	0.69600	-370.30798	1013.97247	461.65350	-200.52684	977.65369	351.03079	-295.89725	793.81213	267.28751	-290.97601	731.57599	258.42792	-221.87453	790.76660	280.46292	-226.10657	730.35950	270.22308	-300.13525	480.70749	267.98618	-307.84103	445.04608	378.38742	-372.56894	376.35583	234.67561	-365.38297	333.20676	230.26669	-308.05066	382.12802	232.76584	-311.18506	338.08374	227.79231	-330.57764	92.20784	237.55112	-322.11777	103.53172	315.06799	-392.31381	65.72432	282.48901	-219.84070	31.91793	202.40428	-165.91148	56.64724	268.78809	-192.14497	37.88473	314.82092	-367.35162	1011.75623	533.27087	-180.69966	972.14783	590.71429	-274.67258	789.49701	688.77917	-267.32065	726.82990	691.03229	-202.24774	790.25183	668.67609	-205.33804	727.61353	674.93799	-288.50699	463.18027	677.95508	-284.39841	460.31259	567.64221	-346.88412	393.26364	708.86859	-344.92834	345.37729	715.69659	-286.75934	385.64325	699.32233	-293.47009	340.01154	706.46228	-323.36627	90.68228	695.99890	-315.45602	105.92908	618.06567	-388.14505	62.51215	656.02063	-184.61417	35.87331	610.58997	-163.67603	53.90282	655.84644	-205.60167	28.11263	723.97485
